<svg width="24" height="27" viewBox="0 0 24 27" fill="none"
    xmlns="http://www.w3.org/2000/svg">
    <rect y="2.75" width="24" height="24" rx="6" fill="#EEFFE6"/>
    <path d="M10.8 13.8C11.4365 13.8 12.047 13.5471 12.4971 13.0971C12.9471 12.647 13.2 12.0365 13.2 11.4C13.2 10.7635 12.9471 10.153 12.4971 9.70294C12.047 9.25286 11.4365 9 10.8 9C10.1635 9 9.55303 9.25286 9.10294 9.70294C8.65286 10.153 8.4 10.7635 8.4 11.4C8.4 12.0365 8.65286 12.647 9.10294 13.0971C9.55303 13.5471 10.1635 13.8 10.8 13.8ZM10.8 15.4C12.073 15.4 13.2939 15.9057 14.1941 16.8059C15.0943 17.7061 15.6 18.927 15.6 20.2H6C6 18.927 6.50571 17.7061 7.40589 16.8059C8.30606 15.9057 9.52696 15.4 10.8 15.4ZM17.2 12.2C17.2 11.9878 17.1157 11.7843 16.9657 11.6343C16.8157 11.4843 16.6122 11.4 16.4 11.4C16.1878 11.4 15.9843 11.4843 15.8343 11.6343C15.6843 11.7843 15.6 11.9878 15.6 12.2V13H14.8C14.5878 13 14.3843 13.0843 14.2343 13.2343C14.0843 13.3843 14 13.5878 14 13.8C14 14.0122 14.0843 14.2157 14.2343 14.3657C14.3843 14.5157 14.5878 14.6 14.8 14.6H15.6V15.4C15.6 15.6122 15.6843 15.8157 15.8343 15.9657C15.9843 16.1157 16.1878 16.2 16.4 16.2C16.6122 16.2 16.8157 16.1157 16.9657 15.9657C17.1157 15.8157 17.2 15.6122 17.2 15.4V14.6H18C18.2122 14.6 18.4157 14.5157 18.5657 14.3657C18.7157 14.2157 18.8 14.0122 18.8 13.8C18.8 13.5878 18.7157 13.3843 18.5657 13.2343C18.4157 13.0843 18.2122 13 18 13H17.2V12.2Z" fill="#59A160"/>
</svg>
