<svg width="24" height="26" viewBox="0 0 24 26" fill="none"
    xmlns="http://www.w3.org/2000/svg">
    <rect y="2" width="24" height="24" rx="6" fill="#FBEEEF" />
    <path fill-rule="evenodd" clip-rule="evenodd" d="M7.6 9.2C7.17565 9.2 6.76869 9.36857 6.46863 9.66863C6.16857 9.96869 6 10.3757 6 10.8V14C6 14.4243 6.16857 14.8313 6.46863 15.1314C6.76869 15.4314 7.17565 15.6 7.6 15.6V10.8H15.6C15.6 10.3757 15.4314 9.96869 15.1314 9.66863C14.8313 9.36857 14.4243 9.2 14 9.2H7.6ZM9.2 14C9.2 13.5757 9.36857 13.1687 9.66863 12.8686C9.96869 12.5686 10.3757 12.4 10.8 12.4H17.2C17.6243 12.4 18.0313 12.5686 18.3314 12.8686C18.6314 13.1687 18.8 13.5757 18.8 14V17.2C18.8 17.6243 18.6314 18.0313 18.3314 18.3314C18.0313 18.6314 17.6243 18.8 17.2 18.8H10.8C10.3757 18.8 9.96869 18.6314 9.66863 18.3314C9.36857 18.0313 9.2 17.6243 9.2 17.2V14ZM14 17.2C14.4243 17.2 14.8313 17.0314 15.1314 16.7314C15.4314 16.4313 15.6 16.0243 15.6 15.6C15.6 15.1757 15.4314 14.7687 15.1314 14.4686C14.8313 14.1686 14.4243 14 14 14C13.5757 14 13.1687 14.1686 12.8686 14.4686C12.5686 14.7687 12.4 15.1757 12.4 15.6C12.4 16.0243 12.5686 16.4313 12.8686 16.7314C13.1687 17.0314 13.5757 17.2 14 17.2Z" fill="#F15656" />
</svg>