<svg width="24" height="27" viewBox="0 0 24 27" fill="none"
    xmlns="http://www.w3.org/2000/svg">
    <rect y="2.5" width="24" height="24" rx="6" fill="#F3F8FF"/>
    <path d="M7.6 9C7.17565 9 6.76869 9.16857 6.46863 9.46863C6.16857 9.76869 6 10.1757 6 10.6C6 11.0243 6.16857 11.4313 6.46863 11.7314C6.76869 12.0314 7.17565 12.2 7.6 12.2H17.2C17.6243 12.2 18.0313 12.0314 18.3314 11.7314C18.6314 11.4313 18.8 11.0243 18.8 10.6C18.8 10.1757 18.6314 9.76869 18.3314 9.46863C18.0313 9.16857 17.6243 9 17.2 9H7.6Z" fill="#8EB0DF"/>
    <path fill-rule="evenodd" clip-rule="evenodd" d="M6.8 13H18V18.6C18 19.0243 17.8314 19.4313 17.5314 19.7314C17.2313 20.0314 16.8243 20.2 16.4 20.2H8.4C7.97565 20.2 7.56869 20.0314 7.26863 19.7314C6.96857 19.4313 6.8 19.0243 6.8 18.6V13ZM10.8 15.4C10.8 15.1878 10.8843 14.9843 11.0343 14.8343C11.1843 14.6843 11.3878 14.6 11.6 14.6H13.2C13.4122 14.6 13.6157 14.6843 13.7657 14.8343C13.9157 14.9843 14 15.1878 14 15.4C14 15.6122 13.9157 15.8157 13.7657 15.9657C13.6157 16.1157 13.4122 16.2 13.2 16.2H11.6C11.3878 16.2 11.1843 16.1157 11.0343 15.9657C10.8843 15.8157 10.8 15.6122 10.8 15.4Z" fill="#8EB0DF"/>
</svg>
