<svg width="24" height="27" viewBox="0 0 24 27" fill="none"
    xmlns="http://www.w3.org/2000/svg">
    <rect y="2.25" width="24" height="24" rx="6" fill="#F3F8FF"/>
    <path fill-rule="evenodd" clip-rule="evenodd" d="M8.6 8C8.17565 8 7.76869 8.16857 7.46863 8.46863C7.16857 8.76869 7 9.17565 7 9.6V19.2C7 19.6243 7.16857 20.0313 7.46863 20.3314C7.76869 20.6314 8.17565 20.8 8.6 20.8H15C15.4243 20.8 15.8313 20.6314 16.1314 20.3314C16.4314 20.0313 16.6 19.6243 16.6 19.2V12.3312C16.5999 11.9069 16.4313 11.5 16.1312 11.2L13.4 8.4688C13.1 8.16872 12.6931 8.00009 12.2688 8H8.6ZM12.6 12.8C12.6 12.5878 12.5157 12.3843 12.3657 12.2343C12.2157 12.0843 12.0122 12 11.8 12C11.5878 12 11.3843 12.0843 11.2343 12.2343C11.0843 12.3843 11 12.5878 11 12.8V14.4H9.4C9.18783 14.4 8.98434 14.4843 8.83431 14.6343C8.68429 14.7843 8.6 14.9878 8.6 15.2C8.6 15.4122 8.68429 15.6157 8.83431 15.7657C8.98434 15.9157 9.18783 16 9.4 16H11V17.6C11 17.8122 11.0843 18.0157 11.2343 18.1657C11.3843 18.3157 11.5878 18.4 11.8 18.4C12.0122 18.4 12.2157 18.3157 12.3657 18.1657C12.5157 18.0157 12.6 17.8122 12.6 17.6V16H14.2C14.4122 16 14.6157 15.9157 14.7657 15.7657C14.9157 15.6157 15 15.4122 15 15.2C15 14.9878 14.9157 14.7843 14.7657 14.6343C14.6157 14.4843 14.4122 14.4 14.2 14.4H12.6V12.8Z" fill="#8EB0DF"/>
</svg>
