<svg width="16" height="16" viewBox="0 0 16 16" fill="none"
    xmlns="http://www.w3.org/2000/svg">
    <path fill-rule="evenodd" clip-rule="evenodd" d="M7.99998 14.4C9.69736 14.4 11.3252 13.7257 12.5255 12.5255C13.7257 11.3252 14.4 9.69738 14.4 8C14.4 6.30261 13.7257 4.67475 12.5255 3.47452C11.3252 2.27428 9.69736 1.6 7.99998 1.6C6.30259 1.6 4.67472 2.27428 3.47449 3.47452C2.27426 4.67475 1.59998 6.30261 1.59998 8C1.59998 9.69738 2.27426 11.3252 3.47449 12.5255C4.67472 13.7257 6.30259 14.4 7.99998 14.4ZM10.9656 7.4344L8.56558 5.0344C8.41555 4.88442 8.21211 4.80017 7.99998 4.80017C7.78784 4.80017 7.5844 4.88442 7.43438 5.0344L5.03438 7.4344C4.88865 7.58528 4.80801 7.78736 4.80984 7.99712C4.81166 8.20688 4.89579 8.40753 5.04412 8.55585C5.19245 8.70418 5.3931 8.78831 5.60285 8.79014C5.81261 8.79196 6.01469 8.71132 6.16558 8.5656L7.19998 7.5312V10.4C7.19998 10.6122 7.28426 10.8157 7.43429 10.9657C7.58432 11.1157 7.7878 11.2 7.99998 11.2C8.21215 11.2 8.41563 11.1157 8.56566 10.9657C8.71569 10.8157 8.79998 10.6122 8.79998 10.4V7.5312L9.83438 8.5656C9.98526 8.71132 10.1873 8.79196 10.3971 8.79014C10.6069 8.78831 10.8075 8.70418 10.9558 8.55585C11.1042 8.40753 11.1883 8.20688 11.1901 7.99712C11.1919 7.78736 11.1113 7.58528 10.9656 7.4344Z" fill="#12CF5D" />
</svg>