<svg width="16" height="16" viewBox="0 0 16 16" fill="none"
  xmlns="http://www.w3.org/2000/svg">
  <path d="M2.39999 9.60001V12C2.39999 13.3256 4.90719 14.4 7.99999 14.4C11.0928 14.4 13.6 13.3256 13.6 12V9.60001C13.6 10.9256 11.0928 12 7.99999 12C4.90719 12 2.39999 10.9256 2.39999 9.60001Z" fill="currentColor" />
  <path d="M2.39999 5.60001V8.00001C2.39999 9.32561 4.90719 10.4 7.99999 10.4C11.0928 10.4 13.6 9.32561 13.6 8.00001V5.60001C13.6 6.92561 11.0928 8.00001 7.99999 8.00001C4.90719 8.00001 2.39999 6.92561 2.39999 5.60001Z" fill="currentColor" />
  <path d="M13.6 4.00001C13.6 5.32561 11.0928 6.40001 7.99999 6.40001C4.90719 6.40001 2.39999 5.32561 2.39999 4.00001C2.39999 2.67441 4.90719 1.60001 7.99999 1.60001C11.0928 1.60001 13.6 2.67441 13.6 4.00001Z" fill="currentColor" />
</svg>
