<svg width="16" height="16" viewBox="0 0 16 16" fill="none"
  xmlns="http://www.w3.org/2000/svg">
  <path d="M7.2 4.79999C7.2 5.43651 6.94715 6.04696 6.49706 6.49705C6.04697 6.94714 5.43652 7.19999 4.8 7.19999C4.16348 7.19999 3.55303 6.94714 3.10295 6.49705C2.65286 6.04696 2.4 5.43651 2.4 4.79999C2.4 4.16347 2.65286 3.55303 3.10295 3.10294C3.55303 2.65285 4.16348 2.39999 4.8 2.39999C5.43652 2.39999 6.04697 2.65285 6.49706 3.10294C6.94715 3.55303 7.2 4.16347 7.2 4.79999ZM13.6 4.79999C13.6 5.11517 13.5379 5.42725 13.4173 5.71843C13.2967 6.00962 13.1199 6.27419 12.8971 6.49705C12.6742 6.71991 12.4096 6.89669 12.1184 7.01731C11.8273 7.13792 11.5152 7.19999 11.2 7.19999C10.8848 7.19999 10.5727 7.13792 10.2816 7.01731C9.99038 6.89669 9.72581 6.71991 9.50295 6.49705C9.28009 6.27419 9.1033 6.00962 8.98269 5.71843C8.86208 5.42725 8.8 5.11517 8.8 4.79999C8.8 4.16347 9.05286 3.55303 9.50295 3.10294C9.95303 2.65285 10.5635 2.39999 11.2 2.39999C11.8365 2.39999 12.447 2.65285 12.8971 3.10294C13.3471 3.55303 13.6 4.16347 13.6 4.79999ZM10.344 13.6C10.3808 13.3384 10.4 13.072 10.4 12.8C10.4019 11.5431 9.97899 10.3224 9.2 9.33599C9.80807 8.98493 10.4978 8.8001 11.2 8.8001C11.9021 8.80009 12.5919 8.98491 13.2 9.33597C13.808 9.68703 14.313 10.192 14.6641 10.8C15.0151 11.4081 15.2 12.0979 15.2 12.8V13.6H10.344ZM4.8 8.79999C5.86087 8.79999 6.87828 9.22142 7.62843 9.97157C8.37858 10.7217 8.8 11.7391 8.8 12.8V13.6H0.800003V12.8C0.800003 11.7391 1.22143 10.7217 1.97158 9.97157C2.72172 9.22142 3.73914 8.79999 4.8 8.79999Z" fill="currentColor" />
</svg>
