<svg width="16" height="16" viewBox="0 0 16 16" fill="none"
  xmlns="http://www.w3.org/2000/svg">
  <path fill-rule="evenodd" clip-rule="evenodd" d="M3.20001 3.2C2.77566 3.2 2.36869 3.36857 2.06864 3.66863C1.76858 3.96868 1.60001 4.37565 1.60001 4.8V8C1.60001 8.42434 1.76858 8.83131 2.06864 9.13137C2.36869 9.43143 2.77566 9.6 3.20001 9.6V4.8H11.2C11.2 4.37565 11.0314 3.96868 10.7314 3.66863C10.4313 3.36857 10.0244 3.2 9.60001 3.2H3.20001ZM4.80001 8C4.80001 7.57565 4.96858 7.16868 5.26864 6.86863C5.56869 6.56857 5.97566 6.4 6.40001 6.4H12.8C13.2244 6.4 13.6313 6.56857 13.9314 6.86863C14.2314 7.16868 14.4 7.57565 14.4 8V11.2C14.4 11.6243 14.2314 12.0313 13.9314 12.3314C13.6313 12.6314 13.2244 12.8 12.8 12.8H6.40001C5.97566 12.8 5.56869 12.6314 5.26864 12.3314C4.96858 12.0313 4.80001 11.6243 4.80001 11.2V8ZM9.60001 11.2C10.0244 11.2 10.4313 11.0314 10.7314 10.7314C11.0314 10.4313 11.2 10.0243 11.2 9.6C11.2 9.17565 11.0314 8.76868 10.7314 8.46863C10.4313 8.16857 10.0244 8 9.60001 8C9.17566 8 8.76869 8.16857 8.46864 8.46863C8.16858 8.76868 8.00001 9.17565 8.00001 9.6C8.00001 10.0243 8.16858 10.4313 8.46864 10.7314C8.76869 11.0314 9.17566 11.2 9.60001 11.2Z" fill="currentColor" />
</svg>
