<svg width="16" height="16" viewBox="0 0 16 16" fill="none"
  xmlns="http://www.w3.org/2000/svg">
  <path d="M8.95586 2.23423C8.80584 2.08425 8.60239 2 8.39025 2C8.17812 2 7.97467 2.08425 7.82465 2.23423L2.22457 7.83431C2.07884 7.98519 1.99821 8.18727 2.00003 8.39704C2.00185 8.6068 2.08599 8.80745 2.23432 8.95578C2.38265 9.10411 2.5833 9.18824 2.79306 9.19006C3.00282 9.19189 3.2049 9.11125 3.35579 8.96552L3.59019 8.73112V14C3.59019 14.2122 3.67448 14.4157 3.82451 14.5657C3.97454 14.7157 4.17803 14.8 4.3902 14.8H5.99022C6.2024 14.8 6.40588 14.7157 6.55592 14.5657C6.70595 14.4157 6.79023 14.2122 6.79023 14V12.4C6.79023 12.1878 6.87452 11.9843 7.02455 11.8343C7.17458 11.6842 7.37807 11.6 7.59024 11.6H9.19027C9.40244 11.6 9.60593 11.6842 9.75596 11.8343C9.90599 11.9843 9.99028 12.1878 9.99028 12.4V14C9.99028 14.2122 10.0746 14.4157 10.2246 14.5657C10.3746 14.7157 10.5781 14.8 10.7903 14.8H12.3903C12.6025 14.8 12.806 14.7157 12.956 14.5657C13.106 14.4157 13.1903 14.2122 13.1903 14V8.73112L13.4247 8.96552C13.5756 9.11125 13.7777 9.19189 13.9875 9.19006C14.1972 9.18824 14.3979 9.10411 14.5462 8.95578C14.6945 8.80745 14.7787 8.6068 14.7805 8.39704C14.7823 8.18727 14.7017 7.98519 14.5559 7.83431L8.95586 2.23423Z" fill="currentColor" />
</svg>
