<svg width="16" height="16" viewBox="0 0 16 16" fill="none"
  xmlns="http://www.w3.org/2000/svg">
  <path d="M7 2C6.78783 2 6.58434 2.08429 6.43431 2.23431C6.28429 2.38434 6.2 2.58783 6.2 2.8C6.2 3.01217 6.28429 3.21566 6.43431 3.36569C6.58434 3.51571 6.78783 3.6 7 3.6H8.6C8.81217 3.6 9.01566 3.51571 9.16569 3.36569C9.31571 3.21566 9.4 3.01217 9.4 2.8C9.4 2.58783 9.31571 2.38434 9.16569 2.23431C9.01566 2.08429 8.81217 2 8.6 2H7Z" fill="currentColor" />
  <path fill-rule="evenodd" clip-rule="evenodd" d="M3 4.4C3 3.97565 3.16857 3.56869 3.46863 3.26863C3.76869 2.96857 4.17565 2.8 4.6 2.8C4.6 3.43652 4.85286 4.04697 5.30294 4.49706C5.75303 4.94714 6.36348 5.2 7 5.2H8.6C9.23652 5.2 9.84697 4.94714 10.2971 4.49706C10.7471 4.04697 11 3.43652 11 2.8C11.4243 2.8 11.8313 2.96857 12.1314 3.26863C12.4314 3.56869 12.6 3.97565 12.6 4.4V13.2C12.6 13.6243 12.4314 14.0313 12.1314 14.3314C11.8313 14.6314 11.4243 14.8 11 14.8H4.6C4.17565 14.8 3.76869 14.6314 3.46863 14.3314C3.16857 14.0313 3 13.6243 3 13.2V4.4ZM10.7656 8.9656C10.9113 8.81472 10.992 8.61264 10.9901 8.40288C10.9883 8.19312 10.9042 7.99247 10.7559 7.84415C10.6075 7.69582 10.4069 7.61168 10.1971 7.60986C9.98736 7.60804 9.78528 7.68867 9.6344 7.8344L7 10.4688L5.9656 9.4344C5.81472 9.28867 5.61264 9.20804 5.40288 9.20986C5.19312 9.21168 4.99247 9.29582 4.84415 9.44415C4.69582 9.59247 4.61168 9.79312 4.60986 10.0029C4.60804 10.2126 4.68867 10.4147 4.8344 10.5656L6.4344 12.1656C6.58442 12.3156 6.78787 12.3998 7 12.3998C7.21213 12.3998 7.41558 12.3156 7.5656 12.1656L10.7656 8.9656Z" fill="currentColor" />
</svg>
