<svg width="16" height="16" viewBox="0 0 16 16" fill="none"
  xmlns="http://www.w3.org/2000/svg">
  <path d="M2.40001 0.800003C2.18783 0.800003 1.98435 0.884288 1.83432 1.03432C1.68429 1.18435 1.60001 1.38783 1.60001 1.6C1.60001 1.81218 1.68429 2.01566 1.83432 2.16569C1.98435 2.31572 2.18783 2.4 2.40001 2.4H3.37601L3.62001 3.3776C3.62243 3.38886 3.6251 3.40006 3.62801 3.4112L4.71441 7.7552L4.00001 8.4688C2.99201 9.4768 3.70561 11.2 5.13121 11.2H12C12.2122 11.2 12.4157 11.1157 12.5657 10.9657C12.7157 10.8157 12.8 10.6122 12.8 10.4C12.8 10.1878 12.7157 9.98435 12.5657 9.83432C12.4157 9.68429 12.2122 9.6 12 9.6H5.13121L5.93121 8.8H11.2C11.3485 8.79992 11.4941 8.7585 11.6204 8.68036C11.7467 8.60223 11.8488 8.49047 11.9152 8.3576L14.3152 3.5576C14.3761 3.43567 14.4049 3.30018 14.3988 3.16401C14.3926 3.02783 14.3518 2.89548 14.2802 2.77952C14.2085 2.66355 14.1084 2.56782 13.9894 2.5014C13.8704 2.43498 13.7363 2.40008 13.6 2.4H5.02401L4.77601 1.4056C4.73267 1.23261 4.63277 1.07905 4.49217 0.969327C4.35158 0.859605 4.17835 0.800008 4.00001 0.800003H2.40001ZM12.8 13.2C12.8 13.5183 12.6736 13.8235 12.4485 14.0485C12.2235 14.2736 11.9183 14.4 11.6 14.4C11.2817 14.4 10.9765 14.2736 10.7515 14.0485C10.5264 13.8235 10.4 13.5183 10.4 13.2C10.4 12.8817 10.5264 12.5765 10.7515 12.3515C10.9765 12.1264 11.2817 12 11.6 12C11.9183 12 12.2235 12.1264 12.4485 12.3515C12.6736 12.5765 12.8 12.8817 12.8 13.2ZM5.20001 14.4C5.51827 14.4 5.82349 14.2736 6.04853 14.0485C6.27358 13.8235 6.40001 13.5183 6.40001 13.2C6.40001 12.8817 6.27358 12.5765 6.04853 12.3515C5.82349 12.1264 5.51827 12 5.20001 12C4.88175 12 4.57652 12.1264 4.35148 12.3515C4.12643 12.5765 4.00001 12.8817 4.00001 13.2C4.00001 13.5183 4.12643 13.8235 4.35148 14.0485C4.57652 14.2736 4.88175 14.4 5.20001 14.4V14.4Z" fill="currentColor" />
</svg>
