<svg width="16" height="16" viewBox="0 0 16 16" fill="none"
  xmlns="http://www.w3.org/2000/svg">
  <path fill-rule="evenodd" clip-rule="evenodd" d="M2.40001 2.39999C2.18783 2.39999 1.98435 2.48428 1.83432 2.63431C1.68429 2.78434 1.60001 2.98782 1.60001 3.19999C1.60001 3.41217 1.68429 3.61565 1.83432 3.76568C1.98435 3.91571 2.18783 3.99999 2.40001 3.99999V10.4C2.40001 10.8243 2.56858 11.2313 2.86864 11.5314C3.16869 11.8314 3.57566 12 4.00001 12H6.06881L5.03441 13.0344C4.958 13.1082 4.89705 13.1965 4.85512 13.2941C4.8132 13.3917 4.79113 13.4966 4.79021 13.6029C4.78928 13.7091 4.80952 13.8144 4.84975 13.9128C4.88997 14.0111 4.94938 14.1004 5.02449 14.1755C5.0996 14.2506 5.18893 14.31 5.28724 14.3503C5.38556 14.3905 5.4909 14.4107 5.59713 14.4098C5.70335 14.4089 5.80833 14.3868 5.90593 14.3449C6.00353 14.3029 6.09181 14.242 6.16561 14.1656L8.00001 12.3312L9.83441 14.1656C9.98529 14.3113 10.1874 14.392 10.3971 14.3901C10.6069 14.3883 10.8075 14.3042 10.9559 14.1558C11.1042 14.0075 11.1883 13.8069 11.1901 13.5971C11.192 13.3874 11.1113 13.1853 10.9656 13.0344L9.9312 12H12C12.4244 12 12.8313 11.8314 13.1314 11.5314C13.4314 11.2313 13.6 10.8243 13.6 10.4V3.99999C13.8122 3.99999 14.0157 3.91571 14.1657 3.76568C14.3157 3.61565 14.4 3.41217 14.4 3.19999C14.4 2.98782 14.3157 2.78434 14.1657 2.63431C14.0157 2.48428 13.8122 2.39999 13.6 2.39999H2.40001ZM11.7656 6.16559C11.9113 6.01471 11.992 5.81263 11.9901 5.60287C11.9883 5.39312 11.9042 5.19247 11.7559 5.04414C11.6075 4.89581 11.4069 4.81168 11.1971 4.80985C10.9874 4.80803 10.7853 4.88867 10.6344 5.03439L8.00001 7.66879L6.96561 6.63439C6.81558 6.48442 6.61214 6.40016 6.40001 6.40016C6.18787 6.40016 5.98443 6.48442 5.83441 6.63439L4.23441 8.23439C4.158 8.30819 4.09705 8.39647 4.05512 8.49407C4.0132 8.59167 3.99113 8.69665 3.99021 8.80287C3.98928 8.9091 4.00952 9.01444 4.04975 9.11276C4.08997 9.21107 4.14938 9.3004 4.22449 9.37551C4.2996 9.45062 4.38893 9.51003 4.48724 9.55025C4.58556 9.59048 4.6909 9.61072 4.79713 9.60979C4.90335 9.60887 5.00833 9.5868 5.10593 9.54488C5.20353 9.50295 5.29181 9.442 5.36561 9.36559L6.40001 8.33119L7.43441 9.36559C7.58443 9.51557 7.78787 9.59982 8.00001 9.59982C8.21214 9.59982 8.41558 9.51557 8.56561 9.36559L11.7656 6.16559Z" fill="currentColor" />
</svg>
