<svg width="16" height="16" viewBox="0 0 16 16" fill="none"
    xmlns="http://www.w3.org/2000/svg">
    <path fill-rule="evenodd" clip-rule="evenodd" d="M7.99996 2.66666C8.36815 2.66666 8.66663 2.96514 8.66663 3.33333V7.33333H12.6666C13.0348 7.33333 13.3333 7.63181 13.3333 8C13.3333 8.36819 13.0348 8.66666 12.6666 8.66666H8.66663V12.6667C8.66663 13.0349 8.36815 13.3333 7.99996 13.3333C7.63177 13.3333 7.33329 13.0349 7.33329 12.6667V8.66666H3.33329C2.9651 8.66666 2.66663 8.36819 2.66663 8C2.66663 7.63181 2.9651 7.33333 3.33329 7.33333H7.33329V3.33333C7.33329 2.96514 7.63177 2.66666 7.99996 2.66666Z" fill="#ABB3B9" />
</svg>