<svg width="14" height="14" viewBox="0 0 14 14" fill="none"
    xmlns="http://www.w3.org/2000/svg">
    <path fill-rule="evenodd" clip-rule="evenodd" d="M7 14C8.85652 14 10.637 13.2625 11.9497 11.9497C13.2625 10.637 14 8.85652 14 7C14 5.14348 13.2625 3.36301 11.9497 2.05025C10.637 0.737498 8.85652 0 7 0C5.14348 0 3.36301 0.737498 2.05025 2.05025C0.737498 3.36301 0 5.14348 0 7C0 8.85652 0.737498 10.637 2.05025 11.9497C3.36301 13.2625 5.14348 14 7 14ZM7.875 4.375C7.875 4.14294 7.78281 3.92038 7.61872 3.75628C7.45462 3.59219 7.23206 3.5 7 3.5C6.76794 3.5 6.54538 3.59219 6.38128 3.75628C6.21719 3.92038 6.125 4.14294 6.125 4.375V7.51275L4.99362 6.38138C4.8286 6.22199 4.60757 6.13379 4.37815 6.13579C4.14873 6.13778 3.92927 6.2298 3.76703 6.39203C3.6048 6.55427 3.51278 6.77373 3.51079 7.00315C3.50879 7.23257 3.59699 7.4536 3.75638 7.61862L6.38138 10.2436C6.54546 10.4077 6.76798 10.4998 7 10.4998C7.23202 10.4998 7.45454 10.4077 7.61862 10.2436L10.2436 7.61862C10.403 7.4536 10.4912 7.23257 10.4892 7.00315C10.4872 6.77373 10.3952 6.55427 10.233 6.39203C10.0707 6.2298 9.85127 6.13778 9.62185 6.13579C9.39243 6.13379 9.1714 6.22199 9.00638 6.38138L7.875 7.51275V4.375Z" fill="currentColor" />
</svg>